<svg xmlns="http://www.w3.org/2000/svg" version="1.1" xmlns:xlink="http://www.w3.org/1999/xlink" xmlns:svgjs="http://svgjs.dev/svgjs" width="2000" height="2250" viewBox="0 0 2000 2250"><g transform="matrix(1,0,0,1,3.410605131648481e-13,0)"><svg viewBox="0 0 320 360" data-background-color="#ffffff" preserveAspectRatio="xMidYMid meet" height="2250" width="2000" xmlns="http://www.w3.org/2000/svg" xmlns:xlink="http://www.w3.org/1999/xlink"><g id="tight-bounds" transform="matrix(1,0,0,1,0,0)"><svg viewBox="0 0 320 360" height="360" width="320"><g><svg></svg></g><g><svg viewBox="0 0 320 360" height="360" width="320"><g><path xmlns="http://www.w3.org/2000/svg" d="M20.961 227.22l3.726 4.658-1.863-6.056c-0.466-2.795-3.726 0.466-1.863 1.398M25.153 224.425c1.397 2.329 2.795 4.658 2.795 6.987 0 3.261 2.795 4.658 5.123 5.589-3.261-3.726-5.124-13.974-7.918-12.576M204.017 26.929c7.918 0 15.371-0.932 23.756 0.931 20.495 5.124 37.729 15.371 49.374 29.811l32.606 52.169c1.397 13.042 4.192 27.482 3.726 43.319 3.261 0 2.795-4.658 6.521-5.59-3.726 9.316-5.59 20.961-6.521 34.469-2.329-7.453 0-18.632 0.466-24.687-3.261 5.124-5.124 1.397-5.124-0.932 0.466-3.726-1.397-3.261-2.795-4.658-5.124-4.658-8.384-9.782-12.11-17.7 2.329-6.055 2.795-14.905-4.658-19.563-2.329-1.397-5.124-3.726-6.521-7.453-1.863-5.124-5.124-11.179-4.193-19.097 0.466-2.329-6.987 5.124-11.179 1.863-18.166-12.576-36.332-27.016-58.224-39.127-11.645 0-20.029-4.192-24.221-9.316-3.726-4.658-0.932-10.713 4.658-11.179 3.261 0 6.987-0.932 9.782 0.932 0.466-1.863 2.329-4.192 4.657-4.192M157.904 16.215l0.932 0.466c4.658 0.932 6.987 7.453 12.11 5.124 0 3.261 0.466 6.521-0.466 8.85-1.397 3.726-5.59 3.726-8.85 3.726-31.208-1.863-49.374 11.179-68.471 22.358-5.124 3.261-10.713 5.59-14.906 9.782-20.029 18.632-41.921 35.866-47.045 70.335l-4.192 38.195c-0.466 4.192-5.124 8.384-4.192 13.508l3.26 22.824c-3.261-3.261-5.124 0.932-4.192 2.795 0.466 1.397 2.329 6.055 5.124 1.863 3.726 6.987 7.453 20.495 12.576 26.55 15.837 18.632 36.332 35.4 53.101 52.169 4.192-0.932 7.453-0.932 8.384-3.727 1.397 2.795-1.397 5.59-3.726 6.056 7.453 4.658 15.837 8.85 27.016 9.781 14.44 0.932 27.948 3.261 40.524 6.522 6.521-1.863 13.042-2.795 20.029-3.261 2.329 0 3.726-3.726 6.521-4.658l0.466-4.658c2.795 4.192 2.329-1.397 0.466-4.192 3.261 2.795 4.192 5.124 5.589 6.987 0-1.397 3.726-6.521 3.727-0.466l0.931-6.055c1.397-0.932 1.863 5.124 3.261 0.931 1.397-4.192 4.192-0.932 6.987-2.329-0.932 1.863-0.466 5.59 2.794 3.261l3.727-3.261c2.329 5.59 6.055 3.261 7.918 2.329 20.495-13.042 40.99-28.413 60.553-43.784l-0.466 6.055 2.329-7.453c2.329 2.329 4.192 0.466 5.124-0.931 2.795-4.658 6.521-9.316 12.577-13.508-7.453 20.029-16.303 35.866-27.482 48.908l-4.658 5.59c0 3.261-0.932 7.453-4.658 7.918-1.863 0.466-5.59-0.932-8.384 1.863-1.397 1.863 3.261 5.59-0.466 2.795-3.261-2.329-6.521 0-10.248 0.932-2.795 0.932 1.863 3.726 2.795 5.589 0.932 1.863 1.863 3.726 1.398 6.056l-5.124-5.59c-6.055 3.261-9.782 9.316-14.906 13.974-2.329 1.863-1.397 5.124-1.397 7.918-3.261 0-6.987-0.932-8.85 0.932-1.397 1.863-0.932 4.658-0.932 7.453-4.658-0.466-5.124-7.453-9.315-6.056-4.192 0.932-8.85 1.397-12.577 3.727 2.795 5.59-4.658 2.329-3.726 3.26-6.987-4.192-13.042-7.453-20.495-4.658-15.837-5.124-35.4-2.795-49.84-0.931 0-2.329 0.466-4.658-0.466-5.124-0.932 2.329-3.726 1.397-3.26 1.397-8.85-6.055-17.7-9.782-27.016-14.905-8.384 0.932-16.303-3.261-18.632-5.59-6.521-6.055-13.974-2.795-20.029-4.192-13.042-3.261-17.7-16.769-19.098-26.084-0.932-4.658-4.658-6.521-6.055-6.056-6.055-19.563-15.371-37.263-22.824-55.429-1.863-4.658-1.397-9.316-1.397-14.44 2.329 0.932 4.658 0.466 4.192-2.794-2.329-15.371-7.918-27.016-13.974-38.195 3.261-15.837 3.726-34.469 11.179-48.443 6.521-12.576 18.632-19.098 27.016-29.811 2.795-3.726 2.795-8.85 5.59-12.11 9.316-9.316 18.632-19.098 28.879-27.482 4.658-3.726 10.247 0 17.234-1.397 2.329-8.384 11.645-15.837 20.495-13.508 3.726 0.932 11.179-8.85 13.508-9.782 3.726-1.397 1.863 3.726 1.863 6.987 8.85-6.987 20.961-10.713 32.14-14.906" fill="#000000" fill-rule="nonzero" stroke="none" stroke-width="1" stroke-linecap="butt" stroke-linejoin="miter" stroke-miterlimit="10" stroke-dasharray="" stroke-dashoffset="0" font-family="none" font-weight="none" font-size="none" text-anchor="none" style="mix-blend-mode: normal" data-fill-palette-color="tertiary"></path></g><g transform="matrix(1,0,0,1,64,151.53702209361703)"><svg viewBox="0 0 192 56.92595581276595" height="56.92595581276595" width="192"><g><svg viewBox="0 0 192 56.92595581276595" height="56.92595581276595" width="192"><g><svg viewBox="0 0 192 56.92595581276595" height="56.92595581276595" width="192"><g><svg viewBox="0 0 192 56.92595581276595" height="56.92595581276595" width="192"><g id="textblocktransform"><svg viewBox="0 0 192 56.92595581276595" height="56.92595581276595" width="192" id="textblock"><g><svg viewBox="0 0 192 32.27234042553191" height="32.27234042553191" width="192"><g transform="matrix(1,0,0,1,0,0)"><svg width="192" viewBox="4.650000095367432 -35 211.48001098632812 35.54999923706055" height="32.27234042553191" data-palette-color="#000000"><path d="M10.15-34.5L10.15-34.5Q12.6-34.5 15.08-34.5 17.55-34.5 20-34.45 22.45-34.4 24.85-34.3L24.85-34.3 24.75-32.75 10.5-32.75Q8.8-32.75 7.75-31.68 6.7-30.6 6.7-28.85L6.7-28.85 6.7-5.65Q6.7-3.9 7.75-2.83 8.8-1.75 10.5-1.75L10.5-1.75 24.75-1.75 24.85-0.2Q22.45-0.1 20-0.05 17.55 0 15.08 0 12.6 0 10.15 0L10.15 0Q7.7 0 6.18-1.5 4.65-3 4.65-5.3L4.65-5.3 4.65-29.2Q4.65-31.55 6.18-33.02 7.7-34.5 10.15-34.5ZM5.5-17.55L5.5-19.3 22.7-19.25 22.7-17.6 5.5-17.55ZM48.65-24.1L50.95-24.1 42.7-12.5 51.55 0 49.25 0 40.45-12.5 48.65-24.1ZM29.9-24.1L32.2-24.1 40.4-12.5 31.6 0 29.3 0 38.15-12.5 29.9-24.1ZM38.75-13.4L42.05-13.4 42.05-11.75 38.75-11.75 38.75-13.4ZM68.8-24.7L68.8-24.7Q71.05-24.7 72.65-24 74.25-23.3 75.07-21.78 75.9-20.25 75.9-17.7L75.9-17.7 75.9 0 74.4 0 74-5.3 73.9-5.65 73.9-17.7Q73.9-20 72.8-21.45 71.7-22.9 68.55-22.9L68.55-22.9Q66.05-22.9 63.12-22.68 60.2-22.45 57.5-22.15L57.5-22.15 57.3-23.65Q58.9-23.9 60.67-24.13 62.45-24.35 64.47-24.53 66.5-24.7 68.8-24.7ZM62.3-14.65L74.65-14.65 74.6-13.05 62.5-12.9Q60.4-12.85 59.37-11.8 58.35-10.75 58.35-8.75L58.35-8.75 58.35-6.05Q58.35-3.8 59.52-2.68 60.7-1.55 63.05-1.5L63.05-1.5Q64.85-1.45 66.95-2.13 69.05-2.8 71.05-4 73.05-5.2 74.45-6.65L74.45-6.65 74.45-4.9Q73.75-4.1 72.55-3.23 71.35-2.35 69.8-1.53 68.25-0.7 66.47-0.18 64.7 0.35 62.85 0.35L62.85 0.35Q60.85 0.35 59.37-0.38 57.9-1.1 57.1-2.5 56.3-3.9 56.3-5.9L56.3-5.9 56.3-8.9Q56.3-11.65 57.87-13.15 59.45-14.65 62.3-14.65L62.3-14.65ZM113.59-24.7L113.59-24.7Q116.59-24.7 118.22-23.03 119.84-21.35 119.84-18.1L119.84-18.1 119.84 0 117.89 0 117.89-17.7Q117.84-20.4 116.64-21.65 115.44-22.9 112.99-22.9L112.99-22.9Q111.44-22.9 109.94-22.38 108.44-21.85 106.82-20.8 105.19-19.75 103.04-18.15L103.04-18.15 102.99-19.75Q105.74-22.25 108.37-23.48 110.99-24.7 113.59-24.7ZM84.79-24.1L86.34-24.1 86.54-19.65 86.74-18.85 86.74 0 84.79 0 84.79-24.1ZM97.04-24.7L97.04-24.7Q100.04-24.7 101.67-23.05 103.29-21.4 103.29-18.1L103.29-18.1 103.29 0 101.34 0 101.34-17.7Q101.34-20.4 100.12-21.65 98.89-22.9 96.44-22.9L96.44-22.9Q94.94-22.9 93.44-22.4 91.94-21.9 90.29-20.83 88.64-19.75 86.54-18.15L86.54-18.15 86.44-19.75Q89.19-22.25 91.82-23.48 94.44-24.7 97.04-24.7ZM131.39-34.5L133.44-34.5 133.44 0 131.39 0 131.39-34.5ZM119.54-34.5L145.34-34.5 145.34-32.7 119.54-32.7 119.54-34.5ZM156.99-24.7L156.99-24.7Q159.24-24.7 160.84-24 162.44-23.3 163.26-21.78 164.09-20.25 164.09-17.7L164.09-17.7 164.09 0 162.59 0 162.19-5.3 162.09-5.65 162.09-17.7Q162.09-20 160.99-21.45 159.89-22.9 156.74-22.9L156.74-22.9Q154.24-22.9 151.31-22.68 148.39-22.45 145.69-22.15L145.69-22.15 145.49-23.65Q147.09-23.9 148.86-24.13 150.64-24.35 152.66-24.53 154.69-24.7 156.99-24.7ZM150.49-14.65L162.84-14.65 162.79-13.05 150.69-12.9Q148.59-12.85 147.56-11.8 146.54-10.75 146.54-8.75L146.54-8.75 146.54-6.05Q146.54-3.8 147.71-2.68 148.89-1.55 151.24-1.5L151.24-1.5Q153.04-1.45 155.14-2.13 157.24-2.8 159.24-4 161.24-5.2 162.64-6.65L162.64-6.65 162.64-4.9Q161.94-4.1 160.74-3.23 159.54-2.35 157.99-1.53 156.44-0.7 154.66-0.18 152.89 0.35 151.04 0.35L151.04 0.35Q149.04 0.35 147.56-0.38 146.09-1.1 145.29-2.5 144.49-3.9 144.49-5.9L144.49-5.9 144.49-8.9Q144.49-11.65 146.06-13.15 147.64-14.65 150.49-14.65L150.49-14.65ZM180.39-24.7L180.39-24.7Q181.89-24.7 183.54-24.63 185.19-24.55 186.84-24.4 188.49-24.25 189.94-24.05L189.94-24.05 189.74-22.6Q187.54-22.7 185.16-22.8 182.79-22.9 180.59-22.95L180.59-22.95Q178.04-23 176.44-22.8 174.84-22.6 174.09-21.6 173.34-20.6 173.34-18.25L173.34-18.25Q173.34-15.8 174.36-14.85 175.39-13.9 177.24-13.6L177.24-13.6 185.09-12.45Q187.79-12 189.19-10.55 190.59-9.1 190.59-6.2L190.59-6.2Q190.59-3.15 189.46-1.73 188.34-0.3 186.19 0.13 184.04 0.55 180.89 0.55L180.89 0.55Q179.24 0.55 177.01 0.45 174.79 0.35 171.94-0.05L171.94-0.05 172.14-1.5Q173.64-1.4 174.99-1.33 176.34-1.25 177.71-1.23 179.09-1.2 180.69-1.2L180.69-1.2Q183.64-1.25 185.36-1.58 187.09-1.9 187.86-2.98 188.64-4.05 188.64-6.2L188.64-6.2Q188.64-8.6 187.46-9.55 186.29-10.5 184.49-10.75L184.49-10.75 176.64-11.9Q174.94-12.15 173.74-12.88 172.54-13.6 171.96-14.9 171.39-16.2 171.39-18.25L171.39-18.25Q171.39-21.25 172.39-22.63 173.39-24 175.39-24.38 177.39-24.75 180.39-24.7ZM212.88-24.1L215.33-24.1 206.68-14.9Q206.43-14.65 206.03-14.3 205.63-13.95 205.38-13.75L205.38-13.75 205.38-13.65Q205.63-13.45 206.03-13.03 206.43-12.6 206.68-12.2L206.68-12.2 216.13 0 213.73 0 203.08-13.85 212.88-24.1ZM197.98-35L199.98-35 200.03-18.65Q200.03-17.3 199.98-16.2 199.93-15.1 199.73-13.75L199.73-13.75Q199.88-12.4 199.93-11.18 199.98-9.95 199.98-8.7L199.98-8.7 199.98 0 197.98 0 197.98-35ZM199.03-14.55L204.73-14.55 204.73-12.95 199.03-12.95 199.03-14.55Z" opacity="1" transform="matrix(1,0,0,1,0,0)" fill="#000000" class="wordmark-text-0" data-fill-palette-color="primary" id="text-0"></path></svg></g></svg></g><g transform="matrix(1,0,0,1,0,36.981649429787225)"><svg viewBox="0 0 192 19.94430638297872" height="19.94430638297872" width="192"><g transform="matrix(1,0,0,1,0,0)"><svg width="192" viewBox="2 -35.29999923706055 344.6400146484375 35.79999923706055" height="19.94430638297872" data-palette-color="#61777f"><path d="M7.9 0L2.25 0Q2 0 2-0.25L2-0.25 2.05-34.6Q2.05-34.8 2.25-34.8L2.25-34.8 7.85-34.8Q8.05-34.8 8.05-34.6L8.05-34.6 8.1-0.25Q8.1 0 7.9 0L7.9 0ZM21.25 0L16.25 0Q15.85 0 15.85-0.35L15.85-0.35 15.8-34.4Q15.8-34.8 16.2-34.8L16.2-34.8 20.7-34.8 29.15-15.1 28.9-34.4Q28.9-34.8 29.35-34.8L29.35-34.8 34.3-34.8Q34.6-34.8 34.6-34.4L34.6-34.4 34.65-0.3Q34.65 0 34.4 0L34.4 0 30 0 21.35-18.4 21.7-0.4Q21.7 0 21.25 0L21.25 0ZM61.19 0.5L61.19 0.5Q58.39 0.5 56.16-0.83 53.94-2.15 52.66-4.48 51.39-6.8 51.39-9.7L51.39-9.7 51.39-12Q51.39-12.2 51.59-12.2L51.59-12.2 57.24-12.2Q57.44-12.2 57.44-11.95L57.44-11.95 57.44-9.7Q57.44-7.85 58.49-6.7 59.54-5.55 61.19-5.55L61.19-5.55Q62.69-5.55 63.79-6.8 64.89-8.05 64.89-9.7L64.89-9.7 64.89-34.55Q64.89-34.75 65.09-34.75L65.09-34.75 70.69-34.75Q70.89-34.75 70.89-34.5L70.89-34.5 70.94-9.7Q70.94-6.95 69.61-4.63 68.29-2.3 66.09-0.9 63.89 0.5 61.19 0.5ZM75.33-0.25L75.33-0.25 81.53-34.6Q81.58-34.8 81.78-34.8L81.78-34.8 89.03-34.8Q89.23-34.8 89.28-34.6L89.28-34.6 95.23-0.25Q95.28 0 95.03 0L95.03 0 89.48 0Q89.28 0 89.23-0.25L89.23-0.25 88.68-3.9 81.88-3.9 81.33-0.25Q81.28 0 81.08 0L81.08 0 75.53 0Q75.33 0 75.33-0.25ZM85.13-23.3L82.88-9.25 87.68-9.25 85.63-23.3 85.33-25.15 85.13-23.3ZM110.48 0L104.43 0Q104.23 0 104.18-0.25L104.18-0.25 97.28-34.6Q97.23-34.8 97.48-34.8L97.48-34.8 103.13-34.8Q103.33-34.8 103.38-34.6L103.38-34.6 107.48-11.7 111.48-34.6Q111.53-34.8 111.73-34.8L111.73-34.8 117.33-34.8Q117.58-34.8 117.53-34.6L117.53-34.6 110.73-0.25Q110.68 0 110.48 0L110.48 0ZM119.98-0.25L119.98-0.25 126.18-34.6Q126.23-34.8 126.43-34.8L126.43-34.8 133.68-34.8Q133.88-34.8 133.93-34.6L133.93-34.6 139.88-0.25Q139.93 0 139.68 0L139.68 0 134.13 0Q133.93 0 133.88-0.25L133.88-0.25 133.33-3.9 126.53-3.9 125.98-0.25Q125.93 0 125.73 0L125.73 0 120.18 0Q119.98 0 119.98-0.25ZM129.78-23.3L127.53-9.25 132.33-9.25 130.28-23.3 129.98-25.15 129.78-23.3ZM168.17 0L162.12 0Q161.92 0 161.87-0.25L161.87-0.25 155.97-34.6Q155.92-34.8 156.12-34.8L156.12-34.8 161.72-34.8Q161.92-34.8 161.97-34.6L161.97-34.6 165.17-12 168.47-34.6Q168.52-34.8 168.77-34.8L168.77-34.8 173.27-34.8Q173.47-34.8 173.52-34.6L173.52-34.6 176.77-12 180.02-34.6Q180.07-34.8 180.27-34.8L180.27-34.8 185.82-34.8Q186.07-34.8 186.02-34.6L186.02-34.6 180.07-0.25Q180.02-0.15 179.92-0.08 179.82 0 179.82 0L179.82 0 173.77 0Q173.62 0 173.52-0.25L173.52-0.25 170.97-18.2 168.42-0.25Q168.37 0 168.17 0L168.17 0ZM208.61 0L192.46 0Q192.26 0 192.26-0.25L192.26-0.25 192.31-34.6Q192.31-34.8 192.51-34.8L192.51-34.8 208.56-34.8Q208.76-34.8 208.76-34.55L208.76-34.55 208.76-28.95Q208.76-28.75 208.56-28.75L208.56-28.75 198.31-28.75 198.31-20.95 208.56-20.95Q208.76-20.95 208.76-20.75L208.76-20.75 208.81-15.1Q208.81-14.9 208.61-14.9L208.61-14.9 198.31-14.9 198.31-6.15 208.61-6.15Q208.81-6.15 208.81-5.9L208.81-5.9 208.81-0.2Q208.81 0 208.61 0L208.61 0ZM237.91 0L232.26 0Q232.06 0 232.06-0.25L232.06-0.25 232.06-28.75 225.56-28.75Q225.31-28.75 225.31-29L225.31-29 225.36-34.6Q225.36-34.8 225.56-34.8L225.56-34.8 244.56-34.8Q244.81-34.8 244.81-34.6L244.81-34.6 244.81-29Q244.81-28.75 244.61-28.75L244.61-28.75 238.06-28.75 238.11-0.25Q238.11 0 237.91 0L237.91 0ZM256.4 0L250.75 0Q250.55 0 250.55-0.25L250.55-0.25 250.65-34.6Q250.65-34.8 250.85-34.8L250.85-34.8 260.95-34.8Q263.65-34.8 265.93-33.48 268.2-32.15 269.55-29.93 270.9-27.7 270.9-24.9L270.9-24.9Q270.9-23.05 270.35-21.58 269.8-20.1 269.05-19.07 268.3-18.05 267.7-17.55L267.7-17.55Q270.4-14.55 270.4-10.5L270.4-10.5 270.45-0.25Q270.45 0 270.2 0L270.2 0 264.55 0Q264.35 0 264.35-0.15L264.35-0.15 264.35-10.5Q264.35-12.3 263.08-13.63 261.8-14.95 259.95-14.95L259.95-14.95 256.65-14.95 256.6-0.25Q256.6 0 256.4 0L256.4 0ZM256.65-28.8L256.65-20.95 260.95-20.95Q262.5-20.95 263.7-22.1 264.9-23.25 264.9-24.9L264.9-24.9Q264.9-26.5 263.73-27.65 262.55-28.8 260.95-28.8L260.95-28.8 256.65-28.8ZM287.15 0.5L287.15 0.5Q284.5 0.5 282.25-0.88 280-2.25 278.67-4.55 277.35-6.85 277.35-9.6L277.35-9.6 277.45-34.6Q277.45-34.8 277.65-34.8L277.65-34.8 283.25-34.8Q283.45-34.8 283.45-34.6L283.45-34.6 283.45-9.6Q283.45-7.9 284.52-6.73 285.6-5.55 287.15-5.55L287.15-5.55Q288.75-5.55 289.82-6.73 290.9-7.9 290.9-9.6L290.9-9.6 290.9-34.6Q290.9-34.8 291.1-34.8L291.1-34.8 296.7-34.8Q296.9-34.8 296.9-34.6L296.9-34.6 297-9.6Q297-6.8 295.67-4.5 294.35-2.2 292.12-0.85 289.9 0.5 287.15 0.5ZM312.74 0.5L312.74 0.5Q310.04 0.5 307.82-0.88 305.59-2.25 304.27-4.53 302.94-6.8 302.94-9.55L302.94-9.55 302.94-11.85Q302.94-12.1 303.19-12.1L303.19-12.1 308.79-12.1Q308.99-12.1 308.99-11.85L308.99-11.85 308.99-9.55Q308.99-7.9 310.09-6.73 311.19-5.55 312.74-5.55L312.74-5.55Q314.29-5.55 315.39-6.75 316.49-7.95 316.49-9.55L316.49-9.55Q316.49-11.4 314.09-12.75L314.09-12.75Q313.29-13.2 311.59-14.15 309.89-15.1 308.39-15.95L308.39-15.95Q305.64-17.55 304.32-19.98 302.99-22.4 302.99-25.45L302.99-25.45Q302.99-28.25 304.34-30.48 305.69-32.7 307.92-34 310.14-35.3 312.74-35.3L312.74-35.3Q315.39-35.3 317.62-33.98 319.84-32.65 321.17-30.43 322.49-28.2 322.49-25.45L322.49-25.45 322.49-21.35Q322.49-21.15 322.29-21.15L322.29-21.15 316.69-21.15Q316.49-21.15 316.49-21.35L316.49-21.35 316.44-25.45Q316.44-27.2 315.34-28.3 314.24-29.4 312.74-29.4L312.74-29.4Q311.19-29.4 310.09-28.23 308.99-27.05 308.99-25.45L308.99-25.45Q308.99-23.8 309.69-22.7 310.39-21.6 312.24-20.6L312.24-20.6Q312.49-20.45 313.22-20.08 313.94-19.7 314.79-19.23 315.64-18.75 316.32-18.4 316.99-18.05 317.14-17.95L317.14-17.95Q319.64-16.55 321.09-14.53 322.54-12.5 322.54-9.55L322.54-9.55Q322.54-6.7 321.22-4.42 319.89-2.15 317.67-0.83 315.44 0.5 312.74 0.5ZM339.74 0L334.09 0Q333.89 0 333.89-0.25L333.89-0.25 333.89-28.75 327.39-28.75Q327.14-28.75 327.14-29L327.14-29 327.19-34.6Q327.19-34.8 327.39-34.8L327.39-34.8 346.39-34.8Q346.64-34.8 346.64-34.6L346.64-34.6 346.64-29Q346.64-28.75 346.44-28.75L346.44-28.75 339.89-28.75 339.94-0.25Q339.94 0 339.74 0L339.74 0Z" opacity="1" transform="matrix(1,0,0,1,0,0)" fill="#000000" class="slogan-text-1" data-fill-palette-color="secondary" id="text-1"></path></svg></g></svg></g></svg></g></svg></g><g></g></svg></g></svg></g></svg></g></svg></g><defs></defs></svg><rect width="320" height="360" fill="none" stroke="none" visibility="hidden"></rect></g></svg></g></svg>